<?xml version="1.0" encoding="utf-8"?>
<!-- Generator: Adobe Illustrator 23.1.1, SVG Export Plug-In . SVG Version: 6.00 Build 0)  -->
<svg version="1.1" id="stars" xmlns="http://www.w3.org/2000/svg" xmlns:xlink="http://www.w3.org/1999/xlink" x="0px" y="0px"
	 viewBox="0 0 1680 1050" style="enable-background:new 0 0 1680 1050;" xml:space="preserve">
<style type="text/css">
	.st0{fill:#1BFE94;}
	.st1{fill:#F7F7F7;}
	.st2{fill:#1EFF96;}
	.st3{fill:#000203;}
	.st4{font-family:'Helvetica-Bold';}
	.st5{font-size:57.0114px;}
	.st6{font-size:27.3912px;}
	.st7{font-family:'AdobeMyungjoStd-Medium-KSCpc-EUC-H';}
</style>
<g id="eyes">
	<rect id="background" x="1132.19" y="-1.3" class="st0" width="547.81" height="547.28"/>
	<path id="shape" class="st1" d="M1261.47,416.97c0,0,338.35,70.07,289.24-289.24C1191.41,78.62,1261.47,416.97,1261.47,416.97z"/>
	<circle id="ColorEye" class="st2" cx="1406.1" cy="272.35" r="96.55"/>
	<circle id="BlackEye" class="st3" cx="1406.1" cy="272.35" r="56.74"/>
</g>
<g id="_x5F_star1">
	<rect id="_x5F_st4" x="1447.5" y="849.4" width="192.54" height="35.58"/>
	
		<rect id="_x5F_st3" x="1447.5" y="849.4" transform="matrix(0.7071 0.7071 -0.7071 0.7071 1065.355 -837.6177)" width="192.54" height="35.58"/>
	
		<rect id="_x5F_st2" x="1447.5" y="849.4" transform="matrix(0.7071 -0.7071 0.7071 0.7071 -161.0346 1345.6049)" width="192.54" height="35.58"/>
	
		<rect id="_x5F_st1" x="1447.5" y="849.4" transform="matrix(-1.836970e-16 1 -1 -1.836970e-16 2410.9597 -676.5831)" width="192.54" height="35.58"/>
</g>
<g id="_x5F_star2">
	<rect id="_x5F_st4_1_" x="1447.5" y="637.59" width="192.54" height="35.58"/>
	
		<rect id="_x5F_st3_1_" x="1447.5" y="637.59" transform="matrix(0.7071 0.7071 -0.7071 0.7071 915.5853 -899.6543)" width="192.54" height="35.58"/>
	
		<rect id="_x5F_st2_1_" x="1447.5" y="637.59" transform="matrix(0.7071 -0.7071 0.7071 0.7071 -11.265 1283.5682)" width="192.54" height="35.58"/>
	
		<rect id="_x5F_st1_1_" x="1447.5" y="637.59" transform="matrix(-1.836970e-16 1 -1 -1.836970e-16 2199.1536 -888.3893)" width="192.54" height="35.58"/>
</g>
<g id="_x5F_star3">
	<rect id="_x5F_st4_3_" x="1172.15" y="849.4" width="192.54" height="35.58"/>
	
		<rect id="_x5F_st3_3_" x="1172.15" y="849.4" transform="matrix(0.7071 0.7071 -0.7071 0.7071 984.7074 -642.9172)" width="192.54" height="35.58"/>
	
		<rect id="_x5F_st2_3_" x="1172.15" y="849.4" transform="matrix(0.7071 -0.7071 0.7071 0.7071 -241.6822 1150.9044)" width="192.54" height="35.58"/>
	
		<rect id="_x5F_st1_3_" x="1172.15" y="849.4" transform="matrix(-1.836970e-16 1 -1 -1.836970e-16 2135.6118 -401.235)" width="192.54" height="35.58"/>
</g>
<g id="_x5F_star4_2_">
	<rect id="_x5F_st4_2_" x="1172.15" y="637.59" width="192.54" height="35.58"/>
	
		<rect id="_x5F_st3_2_" x="1172.15" y="637.59" transform="matrix(0.7071 0.7071 -0.7071 0.7071 834.9377 -704.9538)" width="192.54" height="35.58"/>
	
		<rect id="_x5F_st2_2_" x="1172.15" y="637.59" transform="matrix(0.7071 -0.7071 0.7071 0.7071 -91.9125 1088.8678)" width="192.54" height="35.58"/>
	
		<rect id="_x5F_st1_2_" x="1172.15" y="637.59" transform="matrix(6.123234e-17 -1 1 6.123234e-17 613.0413 1923.8055)" width="192.54" height="35.58"/>
</g>
<g id="left">
	<rect id="Background" class="st0" width="629.33" height="1050"/>
	<text id="NANA" transform="matrix(1 0 0 1 51.4092 115.3293)" class="st4 st5">NIGHT PICNIC</text>
	<text transform="matrix(1 0 0 1 57.6062 205.5284)" class="st4 st5">-19(NANA)</text>
	<text id="Designed" transform="matrix(1 0 0 1 49.5464 284.0203)"><tspan x="0" y="0" class="st4 st6">Designed by Yeseul.</tspan><tspan x="0" y="32.87" class="st4 st6">Copyright</tspan><tspan x="129.33" y="32.87" class="st7 st6">ⓒ</tspan><tspan x="156.72" y="32.87" class="st4 st6">2020 Cho Yeseul</tspan><tspan x="0" y="65.74" class="st4 st6">(@132.o3) Co., Ltd. All rights reserved.</tspan></text>
	<text transform="matrix(1 0 0 1 270.3473 901.0305)" class="st4 st5">REPLAY</text>
	<rect id="bar" x="519.18" y="875.35" width="63.15" height="13"/>
</g>
</svg>
