<?xml version="1.0" encoding="utf-8"?>
<!-- Generator: Adobe Illustrator 23.1.1, SVG Export Plug-In . SVG Version: 6.00 Build 0)  -->
<svg version="1.1" xmlns="http://www.w3.org/2000/svg" xmlns:xlink="http://www.w3.org/1999/xlink" x="0px" y="0px"
	 viewBox="0 0 1920 1080" style="enable-background:new 0 0 1920 1080;" xml:space="preserve">
<style type="text/css">
	.st41{fill:none;stroke:#FFA1ED;stroke-width:6;stroke-miterlimit:10;}
	.st42{fill:none;stroke:#000203;stroke-width:6;stroke-miterlimit:10;}
	.st43{fill:none;stroke:#FFDF22;stroke-width:6;stroke-miterlimit:10;}
	.st44{fill:none;stroke:#27C2FF;stroke-width:6;stroke-miterlimit:10;}
	.st45{fill:none;stroke:#E533FF;stroke-width:6;stroke-miterlimit:10;}
	.st46{fill:none;stroke:#FF6131;stroke-width:6;stroke-miterlimit:10;}
	.st47{fill:none;stroke:#FFA31D;stroke-width:6;stroke-miterlimit:10;}
	.st48{fill:none;stroke:#B72EFF;stroke-width:6;stroke-miterlimit:10;}
</style>
<g id="Layer_2">
	<line class="st41" x1="789" y1="510" x2="822" y2="533"/>
	<line class="st42" x1="815" y1="458" x2="849" y2="494"/>
	<line class="st42" x1="875" y1="441" x2="889" y2="474"/>
	<line class="st43" x1="926" y1="390" x2="933" y2="458"/>
	<line class="st42" x1="980" y1="425" x2="979" y2="456"/>
	<line class="st44" x1="1051" y1="417" x2="1025" y2="465"/>
	<line class="st45" x1="1079" y1="468" x2="1053" y2="500"/>
	<line class="st42" x1="1115" y1="504" x2="1081" y2="536"/>
	<line class="st42" x1="762" y1="574" x2="806" y2="574"/>
	<line class="st42" x1="838" y1="599" x2="814" y2="616"/>
	<line class="st42" x1="865" y1="622" x2="851" y2="650"/>
	<line class="st46" x1="900" y1="638" x2="889" y2="685"/>
	<line class="st42" x1="936" y1="656" x2="935" y2="686"/>
	<line class="st42" x1="1093" y1="567" x2="1138" y2="569"/>
	<line class="st47" x1="1073" y1="593" x2="1107" y2="612"/>
	<line class="st42" x1="1046" y1="613" x2="1073" y2="648"/>
	<line class="st48" x1="1014" y1="635" x2="1038" y2="690"/>
	<line class="st42" x1="977" y1="663" x2="980" y2="678"/>
	<line class="st41" x1="789" y1="380" x2="826" y2="426"/>
	<line class="st41" x1="1052" y1="323" x2="1026" y2="390"/>
	<line class="st43" x1="1205" y1="381" x2="1160" y2="421"/>
	<line class="st43" x1="1150" y1="666" x2="1199" y2="709"/>
	<line class="st44" x1="1112" y1="772" x2="1150" y2="819"/>
	<line class="st41" x1="1014" y1="766" x2="1032" y2="811"/>
	<line class="st43" x1="924" y1="754" x2="924" y2="894"/>
	<line class="st45" x1="869" y1="864" x2="867" y2="907"/>
	<line class="st44" x1="806" y1="736" x2="793" y2="766"/>
	<line class="st45" x1="748" y1="678" x2="653" y2="749"/>
	<line class="st43" x1="703" y1="636" x2="668" y2="641"/>
	<line class="st44" x1="709" y1="553" x2="541" y2="536"/>
	<line class="st48" x1="555" y1="588" x2="478" y2="591"/>
	<line class="st41" x1="694" y1="491" x2="643" y2="471"/>
	<line class="st46" x1="699" y1="396" x2="616" y2="330"/>
	<line class="st43" x1="896" y1="376" x2="872" y2="305"/>
	<line class="st44" x1="904" y1="305" x2="896" y2="252"/>
	<line class="st47" x1="1125" y1="362" x2="1180" y2="265"/>
	<line class="st41" x1="1212" y1="518" x2="1240" y2="520"/>
	<line class="st41" x1="1242" y1="584" x2="1290" y2="594"/>
	<line class="st44" x1="1255" y1="465" x2="1377" y2="463"/>
	<line class="st45" x1="1337" y1="535" x2="1405" y2="546"/>
	<line class="st44" x1="1296" y1="724" x2="1368" y2="765"/>
	<line class="st44" x1="740" y1="204" x2="781" y2="263"/>
	<line class="st44" x1="1018" y1="213" x2="999" y2="271"/>
	<line class="st44" x1="1349" y1="278" x2="1292" y2="301"/>
	<line class="st46" x1="735" y1="810" x2="687" y2="878"/>
</g>
</svg>
