<?xml version="1.0" encoding="utf-8"?>
<!-- Generator: Adobe Illustrator 23.1.1, SVG Export Plug-In . SVG Version: 6.00 Build 0)  -->
<svg version="1.1" id="stars" xmlns="http://www.w3.org/2000/svg" xmlns:xlink="http://www.w3.org/1999/xlink" x="0px" y="0px"
	 viewBox="0 0 1680 1050" style="enable-background:new 0 0 1680 1050;" xml:space="preserve">
<style type="text/css">
	.st0{fill:#1BFE94;}
</style>
<g id="star10">
	<rect id="s_1_9_" x="1301.72" y="654.35" class="st0" width="309" height="14"/>
	<rect id="s_2_9_" x="1301.72" y="654.35" class="st0" width="309" height="14"/>
	<rect id="s_3_9_" x="1301.72" y="654.35" class="st0" width="309" height="14"/>
	<rect id="s_4_9_" x="1301.72" y="654.35" class="st0" width="309" height="14"/>
</g>
<g id="star9">
	<rect id="s_1_8_" x="992.72" y="654.35" class="st0" width="309" height="14"/>
	<rect id="s_2_8_" x="992.72" y="654.35" class="st0" width="309" height="14"/>
	<rect id="s_3_8_" x="992.72" y="654.35" class="st0" width="309" height="14"/>
	<rect id="s_4_8_" x="992.72" y="654.35" class="st0" width="309" height="14"/>
</g>
<g id="star8">
	<rect id="s_1_7_" x="683.72" y="654.35" class="st0" width="309" height="14"/>
	<rect id="s_2_7_" x="683.72" y="654.35" class="st0" width="309" height="14"/>
	<rect id="s_3_7_" x="683.72" y="654.35" class="st0" width="309" height="14"/>
	<rect id="s_4_7_" x="683.72" y="654.35" class="st0" width="309" height="14"/>
</g>
<g id="star7">
	<rect id="s_1_6_" x="374.72" y="654.35" class="st0" width="309" height="14"/>
	<rect id="s_2_6_" x="374.72" y="654.35" class="st0" width="309" height="14"/>
	<rect id="s_3_6_" x="374.72" y="654.35" class="st0" width="309" height="14"/>
	<rect id="s_4_6_" x="374.72" y="654.35" class="st0" width="309" height="14"/>
</g>
<g id="star6">
	<rect id="s_1_5_" x="65.72" y="654.35" class="st0" width="309" height="14"/>
	<rect id="s_2_5_" x="65.72" y="654.35" class="st0" width="309" height="14"/>
	<rect id="s_3_5_" x="65.72" y="654.35" class="st0" width="309" height="14"/>
	<rect id="s_4_5_" x="65.72" y="654.35" class="st0" width="309" height="14"/>
</g>
<g id="star5">
	<rect id="s_1_4_" x="1301.72" y="382.35" class="st0" width="309" height="14"/>
	<rect id="s_2_4_" x="1301.72" y="382.35" class="st0" width="309" height="14"/>
	<rect id="s_3_4_" x="1301.72" y="382.35" class="st0" width="309" height="14"/>
	<rect id="s_4_4_" x="1301.72" y="382.35" class="st0" width="309" height="14"/>
</g>
<g id="star4">
	<rect id="s_1_3_" x="992.72" y="382.35" class="st0" width="309" height="14"/>
	<rect id="s_2_3_" x="992.72" y="382.35" class="st0" width="309" height="14"/>
	<rect id="s_3_3_" x="992.72" y="382.35" class="st0" width="309" height="14"/>
	<rect id="s_4_3_" x="992.72" y="382.35" class="st0" width="309" height="14"/>
</g>
<g id="star3">
	<rect id="s_1_2_" x="683.72" y="382.35" class="st0" width="309" height="14"/>
	<rect id="s_2_2_" x="683.72" y="382.35" class="st0" width="309" height="14"/>
	<rect id="s_3_2_" x="683.72" y="382.35" class="st0" width="309" height="14"/>
	<rect id="s_4_2_" x="683.72" y="382.35" class="st0" width="309" height="14"/>
</g>
<g id="star2">
	<rect id="s_1_1_" x="374.72" y="382.35" class="st0" width="309" height="14"/>
	<rect id="s_2_1_" x="374.72" y="382.35" class="st0" width="309" height="14"/>
	<rect id="s_3_1_" x="374.72" y="382.35" class="st0" width="309" height="14"/>
	<rect id="s_4_1_" x="374.72" y="382.35" class="st0" width="309" height="14"/>
</g>
<g id="star1_1_">
	<rect id="s_1" x="65.72" y="382.35" class="st0" width="309" height="14"/>
	<rect id="s_2" x="65.72" y="382.35" class="st0" width="309" height="14"/>
	<rect id="s_3" x="65.72" y="382.35" class="st0" width="309" height="14"/>
	<rect id="s_4" x="65.72" y="382.35" class="st0" width="309" height="14"/>
</g>
</svg>
